<svg width="33" height="32" viewBox="0 0 33 32" fill="none" xmlns="http://www.w3.org/2000/svg">
<g clip-path="url(#clip0_1128_4092)">
<path d="M32.6455 12.19H31.1155V19.81H32.6455V12.19Z" fill="#000001"/>
<path d="M29.5955 3.05V0H28.0755V1.52H26.5455V3.05H25.0255V7.62H29.5955V6.1H31.1155V4.57H32.6455V3.05H29.5955Z" fill="#000001"/>
<path d="M31.1155 19.81H29.5955V22.86H31.1155V19.81Z" fill="#000001"/>
<path d="M31.1155 9.14001H29.5955V12.19H31.1155V9.14001Z" fill="#000001"/>
<path d="M29.5955 22.86H28.0755V25.91H29.5955V22.86Z" fill="#000001"/>
<path d="M28.0755 25.91H26.5455V27.43H28.0755V25.91Z" fill="#000001"/>
<path d="M26.5455 27.43H23.5055V28.95H26.5455V27.43Z" fill="#000001"/>
<path d="M25.0255 7.62H23.5055V9.14H25.0255V7.62Z" fill="#000001"/>
<path d="M23.5055 9.14001H21.9755V10.67H23.5055V9.14001Z" fill="#000001"/>
<path d="M23.5055 28.95H20.4555V30.48H23.5055V28.95Z" fill="#000001"/>
<path d="M21.9755 13.72H20.4555V18.29H21.9755V13.72Z" fill="#000001"/>
<path d="M21.9755 10.67H20.4555V12.19H21.9755V10.67Z" fill="#000001"/>
<path d="M23.5055 1.51999H20.4555V3.04999H23.5055V1.51999Z" fill="#000001"/>
<path d="M20.4555 18.29H18.9255V19.81H20.4555V18.29Z" fill="#000001"/>
<path d="M20.4555 12.19H18.9255V13.72H20.4555V12.19Z" fill="#000001"/>
<path d="M20.4555 30.48H12.8355V32H20.4555V30.48Z" fill="#000001"/>
<path d="M18.9255 13.72H17.4055V15.24H18.9255V13.72Z" fill="#000001"/>
<path d="M18.9255 19.81H14.3555V21.33H18.9255V19.81Z" fill="#000001"/>
<path d="M17.4055 15.24H15.8855V16.76H17.4055V15.24Z" fill="#000001"/>
<path d="M18.9255 10.67H14.3555V12.19H18.9255V10.67Z" fill="#000001"/>
<path d="M20.4555 0H12.8355V1.52H20.4555V0Z" fill="#000001"/>
<path d="M14.3555 18.29H12.8355V19.81H14.3555V18.29Z" fill="#000001"/>
<path d="M14.3555 12.19H12.8355V13.72H14.3555V12.19Z" fill="#000001"/>
<path d="M12.8355 28.95H9.78551V30.48H12.8355V28.95Z" fill="#000001"/>
<path d="M12.8355 13.72H11.3055V18.29H12.8355V13.72Z" fill="#000001"/>
<path d="M12.8355 1.51999H9.78551V3.04999H12.8355V1.51999Z" fill="#000001"/>
<path d="M9.7855 27.43H6.7355V28.95H9.7855V27.43Z" fill="#000001"/>
<path d="M9.7855 3.04999H6.7355V4.56999H9.7855V3.04999Z" fill="#000001"/>
<path d="M8.26551 12.19H9.78551V9.14001H12.8355V7.62001H21.9755V6.10001H20.4555V4.57001H12.8355V6.10001H9.78551V7.62001H8.26551V9.14001H6.73551V12.19H5.21551V19.81H6.73551V22.86H8.26551V24.38H9.78551V25.91H12.8355V27.43H20.4555V25.91H23.5055V24.38H25.0255V22.86H26.5455V19.81H28.0755V12.19H26.5455V10.67H25.0255V19.81H23.5055V22.86H21.9755V24.38H12.8355V22.86H9.78551V19.81H8.26551V12.19Z" fill="#000001"/>
<path d="M6.73551 25.91H5.21551V27.43H6.73551V25.91Z" fill="#000001"/>
<path d="M6.73551 4.57001H5.21551V6.10001H6.73551V4.57001Z" fill="#000001"/>
<path d="M5.21551 22.86H3.69551V25.91H5.21551V22.86Z" fill="#000001"/>
<path d="M5.21551 6.10001H3.69551V9.14001H5.21551V6.10001Z" fill="#000001"/>
<path d="M3.6955 19.81H2.1655V22.86H3.6955V19.81Z" fill="#000001"/>
<path d="M3.6955 9.14001H2.1655V12.19H3.6955V9.14001Z" fill="#000001"/>
<path d="M2.16551 12.19H0.645508V19.81H2.16551V12.19Z" fill="#000001"/>
</g>
<defs>
<clipPath id="clip0_1128_4092">
<rect width="32" height="32" fill="white" transform="translate(0.645508)"/>
</clipPath>
</defs>
</svg>
