<svg width="33" height="32" viewBox="0 0 33 32" fill="none" xmlns="http://www.w3.org/2000/svg">
<g clip-path="url(#clip0_1128_5056)">
<path d="M32.1001 16.005H30.5801V23.625H32.1001V16.005Z" fill="#000001"/>
<path d="M30.5801 23.625H29.0501V26.665H30.5801V23.625Z" fill="#000001"/>
<path d="M30.5801 12.955H29.0501V16.005H30.5801V12.955Z" fill="#000001"/>
<path d="M29.0501 26.665H27.5301V29.715H29.0501V26.665Z" fill="#000001"/>
<path d="M29.0501 11.425H27.5301V12.955H29.0501V11.425Z" fill="#000001"/>
<path d="M27.5301 29.715H26.0001V31.235H27.5301V29.715Z" fill="#000001"/>
<path d="M27.5301 20.575H26.0001V23.625H27.5301V20.575Z" fill="#000001"/>
<path d="M27.5301 16.005H26.0001V19.045H27.5301V16.005Z" fill="#000001"/>
<path d="M27.5301 9.90503H26.0001V11.425H27.5301V9.90503Z" fill="#000001"/>
<path d="M26.0001 23.625H24.4801V25.145H26.0001V23.625Z" fill="#000001"/>
<path d="M26.0001 11.425H24.4801V16.005H26.0001V11.425Z" fill="#000001"/>
<path d="M26.0001 5.33502H24.4801V6.85502H26.0001V5.33502Z" fill="#000001"/>
<path d="M24.4801 25.145H22.9601V26.665H24.4801V25.145Z" fill="#000001"/>
<path d="M26.0001 19.045H22.9601V20.575H26.0001V19.045Z" fill="#000001"/>
<path d="M24.4801 6.85504H22.9601V8.38504H24.4801V6.85504Z" fill="#000001"/>
<path d="M24.4801 3.815H22.9601V5.335H24.4801V3.815Z" fill="#000001"/>
<path d="M22.9601 20.575H21.4301V22.095H22.9601V20.575Z" fill="#000001"/>
<path d="M22.9601 8.38501H21.4301V9.90501H22.9601V8.38501Z" fill="#000001"/>
<path d="M22.9601 2.28503H21.4301V3.81503H22.9601V2.28503Z" fill="#000001"/>
<path d="M21.4301 29.715H19.9101V31.235H21.4301V29.715Z" fill="#000001"/>
<path d="M21.4301 22.095H19.9101V23.625H21.4301V22.095Z" fill="#000001"/>
<path d="M21.4301 9.90503H19.9101V11.425H21.4301V9.90503Z" fill="#000001"/>
<path d="M21.4301 0.765015H19.9101V2.28501H21.4301V0.765015Z" fill="#000001"/>
<path d="M19.9101 23.625H18.3901V29.715H19.9101V23.625Z" fill="#000001"/>
<path d="M18.3901 0.765015H16.8601V3.81501H18.3901V0.765015Z" fill="#000001"/>
<path d="M16.8601 3.815H15.3401V8.385H16.8601V3.815Z" fill="#000001"/>
<path d="M15.3401 8.38501H13.8101V11.425H15.3401V8.38501Z" fill="#000001"/>
<path d="M13.8101 23.625H12.2901V29.715H13.8101V23.625Z" fill="#000001"/>
<path d="M12.2901 29.715H10.7701V31.235H12.2901V29.715Z" fill="#000001"/>
<path d="M12.2901 22.095H10.7701V23.625H12.2901V22.095Z" fill="#000001"/>
<path d="M12.2901 9.90503H10.7701V11.425H12.2901V9.90503Z" fill="#000001"/>
<path d="M12.2901 0.765015H10.7701V2.28501H12.2901V0.765015Z" fill="#000001"/>
<path d="M10.7701 20.575H9.24011V22.095H10.7701V20.575Z" fill="#000001"/>
<path d="M10.7701 8.38501H9.24011V9.90501H10.7701V8.38501Z" fill="#000001"/>
<path d="M10.7701 2.28503H9.24011V3.81503H10.7701V2.28503Z" fill="#000001"/>
<path d="M9.24009 25.145H7.72009V26.665H9.24009V25.145Z" fill="#000001"/>
<path d="M9.24007 19.045H6.20007V20.575H9.24007V19.045Z" fill="#000001"/>
<path d="M9.24009 6.85504H7.72009V8.38504H9.24009V6.85504Z" fill="#000001"/>
<path d="M9.24009 3.815H7.72009V5.335H9.24009V3.815Z" fill="#000001"/>
<path d="M7.72007 23.625H6.20007V25.145H7.72007V23.625Z" fill="#000001"/>
<path d="M7.72007 11.425H6.20007V16.005H7.72007V11.425Z" fill="#000001"/>
<path d="M7.72007 5.33502H6.20007V6.85502H7.72007V5.33502Z" fill="#000001"/>
<path d="M6.2001 29.715H4.6701V31.235H6.2001V29.715Z" fill="#000001"/>
<path d="M6.2001 20.575H4.6701V23.625H6.2001V20.575Z" fill="#000001"/>
<path d="M6.2001 16.005H4.6701V19.045H6.2001V16.005Z" fill="#000001"/>
<path d="M6.2001 9.90503H4.6701V11.425H6.2001V9.90503Z" fill="#000001"/>
<path d="M4.67009 26.665H3.15009V29.715H4.67009V26.665Z" fill="#000001"/>
<path d="M4.67009 11.425H3.15009V12.955H4.67009V11.425Z" fill="#000001"/>
<path d="M3.15012 23.625H1.62012V26.665H3.15012V23.625Z" fill="#000001"/>
<path d="M3.15012 12.955H1.62012V16.005H3.15012V12.955Z" fill="#000001"/>
<path d="M1.6201 16.005H0.100098V23.625H1.6201V16.005Z" fill="#000001"/>
</g>
<defs>
<clipPath id="clip0_1128_5056">
<rect width="32" height="32" fill="white" transform="translate(0.100098)"/>
</clipPath>
</defs>
</svg>
