<svg width="33" height="32" viewBox="0 0 33 32" fill="none" xmlns="http://www.w3.org/2000/svg">
<g clip-path="url(#clip0_1128_5250)">
<path d="M30.5801 0H21.4301V1.53H19.9101V10.67H1.6201V12.19H19.9101V16.77H21.4301V22.86H1.6201V12.19H0.100098V25.91H1.6201V24.39H21.4301V25.91H22.9601V18.29H30.5801V16.77H32.1001V1.53H30.5801V0ZM24.4801 1.53H27.5301V3.05H24.4801V1.53ZM30.5801 15.24H21.4301V3.05H22.9601V4.58H29.0501V3.05H30.5801V15.24Z" fill="#000001"/>
<path d="M29.0502 9.15002H27.5302V10.67H29.0502V9.15002Z" fill="#000001"/>
<path d="M29.0502 6.09998H27.5302V7.61998H29.0502V6.09998Z" fill="#000001"/>
<path d="M27.5301 10.67H24.4801V12.19H27.5301V10.67Z" fill="#000001"/>
<path d="M24.4801 9.15002H22.9601V10.67H24.4801V9.15002Z" fill="#000001"/>
<path d="M24.4801 6.09998H22.9601V7.61998H24.4801V6.09998Z" fill="#000001"/>
<path d="M1.62012 25.91V27.43H7.72012V28.96H9.24012V27.43H13.8101V28.96H15.3401V27.43H21.4301V25.91H1.62012Z" fill="#000001"/>
<path d="M19.9101 16.77H18.3901V18.29H19.9101V16.77Z" fill="#000001"/>
<path d="M18.3901 18.29H16.8601V19.81H18.3901V18.29Z" fill="#000001"/>
<path d="M18.3901 15.24H16.8601V16.77H18.3901V15.24Z" fill="#000001"/>
<path d="M16.8601 19.81H15.3401V21.34H16.8601V19.81Z" fill="#000001"/>
<path d="M16.8601 13.72H15.3401V15.24H16.8601V13.72Z" fill="#000001"/>
<path d="M7.72007 30.48V28.96H6.20007V32H16.8601V28.96H15.3401V30.48H7.72007Z" fill="#000001"/>
<path d="M13.81 13.72H12.29V16.77H13.81V13.72Z" fill="#000001"/>
<path d="M12.2901 16.77H10.7701V18.29H12.2901V16.77Z" fill="#000001"/>
<path d="M10.7701 18.29H9.24011V21.34H10.7701V18.29Z" fill="#000001"/>
<path d="M7.72007 19.81H6.20007V21.34H7.72007V19.81Z" fill="#000001"/>
<path d="M7.72007 13.72H6.20007V15.24H7.72007V13.72Z" fill="#000001"/>
<path d="M6.20004 18.29H4.67004V19.81H6.20004V18.29Z" fill="#000001"/>
<path d="M6.20004 15.24H4.67004V16.77H6.20004V15.24Z" fill="#000001"/>
<path d="M4.67015 16.77H3.15015V18.29H4.67015V16.77Z" fill="#000001"/>
</g>
<defs>
<clipPath id="clip0_1128_5250">
<rect width="32" height="32" fill="white" transform="translate(0.100098)"/>
</clipPath>
</defs>
</svg>
