<svg width="33" height="32" viewBox="0 0 33 32" fill="none" xmlns="http://www.w3.org/2000/svg">
<path d="M31.8804 8.38H30.3604V14.48H31.8804V8.38Z" fill="#000001"/>
<path d="M30.3604 6.86002H28.8304V8.38002H30.3604V6.86002Z" fill="#000001"/>
<path d="M28.8304 28.19H27.3104V29.72H28.8304V28.19Z" fill="#000001"/>
<path d="M27.3104 16H28.8304V28.19H30.3604V14.48H27.3104V16Z" fill="#000001"/>
<path d="M27.3104 16H24.2604V17.53H27.3104V16Z" fill="#000001"/>
<path d="M27.3104 29.72H5.98039V31.24H27.3104V29.72Z" fill="#000001"/>
<path d="M24.2604 17.53H21.2204V19.05H24.2604V17.53Z" fill="#000001"/>
<path d="M15.1204 20.57V23.62H18.1704V20.57H21.2204V19.05H18.1704V17.53H15.1204V19.05H12.0704V20.57H15.1204Z" fill="#000001"/>
<path d="M24.2604 0.76001H9.02039V2.29001H24.2604V0.76001Z" fill="#000001"/>
<path d="M12.0704 17.53H9.02039V19.05H12.0704V17.53Z" fill="#000001"/>
<path d="M9.02039 16H5.98039V17.53H9.02039V16Z" fill="#000001"/>
<path d="M28.8304 6.86001V5.34001H25.7904V2.29001H24.2604V5.34001H9.02038V2.29001H7.50038V5.34001H4.45038V6.86001H28.8304Z" fill="#000001"/>
<path d="M5.98038 28.19H4.45038V29.72H5.98038V28.19Z" fill="#000001"/>
<path d="M4.45039 16H5.98039V14.48H2.93039V28.19H4.45039V16Z" fill="#000001"/>
<path d="M4.45039 6.86002H2.93039V8.38002H4.45039V6.86002Z" fill="#000001"/>
<path d="M2.93039 8.38H1.41039V14.48H2.93039V8.38Z" fill="#000001"/>
</svg>
