<svg width="33" height="32" viewBox="0 0 33 32" fill="none" xmlns="http://www.w3.org/2000/svg">
<g clip-path="url(#clip0_1128_6126)">
<path d="M32.845 27.429H31.325V28.949H32.845V27.429Z" fill="#000001"/>
<path d="M32.845 1.51898H31.325V22.859H32.845V1.51898Z" fill="#000001"/>
<path d="M31.325 28.949H29.805V30.479H31.325V28.949Z" fill="#000001"/>
<path d="M31.325 25.909H29.805V27.429H31.325V25.909Z" fill="#000001"/>
<path d="M31.325 -0.00100708H2.375V1.51899H31.325V-0.00100708Z" fill="#000001"/>
<path d="M29.805 30.479H28.275V31.999H29.805V30.479Z" fill="#000001"/>
<path d="M29.805 24.379H28.275V25.909H29.805V24.379Z" fill="#000001"/>
<path d="M29.805 19.809H28.275V21.329H29.805V19.809Z" fill="#000001"/>
<path d="M29.805 15.239H23.705V16.759H29.805V15.239Z" fill="#000001"/>
<path d="M28.2749 28.949H26.7549V30.479H28.2749V28.949Z" fill="#000001"/>
<path d="M28.2749 22.859H26.7549V24.379H28.2749V22.859Z" fill="#000001"/>
<path d="M26.755 27.429H25.235V28.949H26.755V27.429Z" fill="#000001"/>
<path d="M26.755 21.329H25.235V22.859H26.755V21.329Z" fill="#000001"/>
<path d="M25.235 25.909H23.705V27.429H25.235V25.909Z" fill="#000001"/>
<path d="M25.235 19.809H23.705V21.329H25.235V19.809Z" fill="#000001"/>
<path d="M23.705 24.379H22.185V25.909H23.705V24.379Z" fill="#000001"/>
<path d="M23.705 18.289H22.185V19.809H23.705V18.289Z" fill="#000001"/>
<path d="M22.185 22.859H20.655V24.379H22.185V22.859Z" fill="#000001"/>
<path d="M22.185 16.759H20.655V18.289H22.185V16.759Z" fill="#000001"/>
<path d="M20.6549 21.329H19.1349V22.859H20.6549V21.329Z" fill="#000001"/>
<path d="M19.135 19.809H17.615V21.329H19.135V19.809Z" fill="#000001"/>
<path d="M29.805 4.569H16.085V6.099H29.805V4.569Z" fill="#000001"/>
<path d="M20.655 16.759V15.239H16.085V19.809H17.615V16.759H20.655Z" fill="#000001"/>
<path d="M29.805 9.13901H16.085V10.669H29.805V9.13901Z" fill="#000001"/>
<path d="M14.565 3.04898H3.89496V13.719H14.565V3.04898ZM13.05 7.61898H11.52V6.09998H9.99496V10.67H11.515V12.19H6.94996V10.67H8.46996V6.09998H6.94996V7.61998H5.42496V4.56898H13.05V7.61898Z" fill="#000001"/>
<path d="M13.045 15.239H3.89496V16.759H13.045V15.239Z" fill="#000001"/>
<path d="M13.045 28.949V24.379H17.615V22.859H11.515V27.429H9.995V28.949H13.045Z" fill="#000001"/>
<path d="M13.045 19.809H3.89496V21.329H13.045V19.809Z" fill="#000001"/>
<path d="M9.99497 25.909H8.46497V27.429H9.99497V25.909Z" fill="#000001"/>
<path d="M8.46495 24.379H6.94495V25.909H8.46495V24.379Z" fill="#000001"/>
<path d="M6.945 22.859H2.375V24.379H6.945V22.859Z" fill="#000001"/>
<path d="M2.37497 1.51898H0.844971V22.859H2.37497V1.51898Z" fill="#000001"/>
</g>
<defs>
<clipPath id="clip0_1128_6126">
<rect width="32" height="32" fill="white" transform="translate(0.849976)"/>
</clipPath>
</defs>
</svg>
