<svg width="33" height="32" viewBox="0 0 33 32" fill="none" xmlns="http://www.w3.org/2000/svg">
<g clip-path="url(#clip0_1135_3152)">
<path d="M31.3201 7.60999H29.8001V10.66H26.7501V12.19H23.7001V13.71H26.7501V18.28H25.2301V19.81H26.7501V22.85H28.2701V12.19H29.8001V25.9H28.2701V32H32.8501V25.9H31.3201V7.60999Z" fill="#000001"/>
<path d="M29.8001 6.08997H26.7501V7.60997H29.8001V6.08997Z" fill="#000001"/>
<path d="M26.7501 22.85H25.2301V24.38H26.7501V22.85Z" fill="#000001"/>
<path d="M26.7501 9.14001H20.6501V10.66H26.7501V9.14001Z" fill="#000001"/>
<path d="M26.7501 4.56995H23.7001V6.08995H26.7501V4.56995Z" fill="#000001"/>
<path d="M25.2301 24.38H22.1801V25.9H25.2301V24.38Z" fill="#000001"/>
<path d="M25.2301 19.8101H22.1801V21.3301H25.2301V19.8101Z" fill="#000001"/>
<path d="M23.7001 13.71H20.6501V15.23H23.7001V13.71Z" fill="#000001"/>
<path d="M23.7001 3.04004H20.6501V4.57004H23.7001V3.04004Z" fill="#000001"/>
<path d="M22.1801 25.9H9.99011V27.42H22.1801V25.9Z" fill="#000001"/>
<path d="M22.1801 21.33H9.99011V22.85H22.1801V21.33Z" fill="#000001"/>
<path d="M20.6501 15.23H17.6101V16.76H20.6501V15.23Z" fill="#000001"/>
<path d="M20.6501 7.60999H14.5601V9.13999H20.6501V7.60999Z" fill="#000001"/>
<path d="M20.6501 1.52002H17.6101V3.04002H20.6501V1.52002Z" fill="#000001"/>
<path d="M17.6101 0H14.5601V1.52H17.6101V0Z" fill="#000001"/>
<path d="M17.6101 16.76H14.5601V18.28H17.6101V16.76Z" fill="#000001"/>
<path d="M14.5601 1.52002H11.5101V3.04002H14.5601V1.52002Z" fill="#000001"/>
<path d="M14.5601 15.23H11.5101V16.76H14.5601V15.23Z" fill="#000001"/>
<path d="M11.5101 3.04004H8.46008V4.57004H11.5101V3.04004Z" fill="#000001"/>
<path d="M9.99006 24.38H6.94006V25.9H9.99006V24.38Z" fill="#000001"/>
<path d="M9.99006 19.8101H6.94006V21.3301H9.99006V19.8101Z" fill="#000001"/>
<path d="M11.5101 13.71H8.46008V15.23H11.5101V13.71Z" fill="#000001"/>
<path d="M8.46004 4.56995H5.42004V6.08995H8.46004V4.56995Z" fill="#000001"/>
<path d="M6.94004 22.85H5.42004V24.38H6.94004V22.85Z" fill="#000001"/>
<path d="M6.94012 19.81V18.28H5.42012V13.71H8.46012V12.19H5.42012V10.66H2.37012V12.19H3.89012V22.85H5.42012V19.81H6.94012Z" fill="#000001"/>
<path d="M5.42012 6.08997H2.37012V7.60997H5.42012V6.08997Z" fill="#000001"/>
<path d="M2.3701 7.60999H0.850098V10.66H2.3701V7.60999Z" fill="#000001"/>
</g>
<defs>
<clipPath id="clip0_1135_3152">
<rect width="32" height="32" fill="white" transform="translate(0.850098)"/>
</clipPath>
</defs>
</svg>
